<svg xmlns="http://www.w3.org/2000/svg" version="1.1" xmlns:xlink="http://www.w3.org/1999/xlink" xmlns:svgjs="http://svgjs.dev/svgjs" width="128" height="128" viewBox="0 0 128 128"><g transform="matrix(0.8046875,0,0,0.8046875,12.333870967741937,12.333870967741937)"><svg viewBox="0 0 155 155" data-background-color="#282a36" preserveAspectRatio="xMidYMid meet" height="128" width="128" xmlns="http://www.w3.org/2000/svg" xmlns:xlink="http://www.w3.org/1999/xlink"><g id="tight-bounds" transform="matrix(1,0,0,1,0.25,0.25)"><svg viewBox="0 0 154.5 154.5" height="154.5" width="154.5"><g><svg></svg></g><g><svg viewBox="0 0 154.5 154.5" height="154.5" width="154.5"><g transform="matrix(1,0,0,1,58.942118958278144,47.746371)"><svg viewBox="0 0 36.615762083443705 59.00725799999999" height="59.00725799999999" width="36.615762083443705"><g><svg viewBox="0 0 36.615762083443705 59.00725799999999" height="59.00725799999999" width="36.615762083443705"><g><svg viewBox="0 0 36.615762083443705 59.00725799999999" height="59.00725799999999" width="36.615762083443705"><g id="textblocktransform"><svg viewBox="0 0 36.615762083443705 59.00725799999999" height="59.00725799999999" width="36.615762083443705" id="textblock"><g><svg viewBox="0 0 36.615762083443705 59.00725799999999" height="59.00725799999999" width="36.615762083443705"><g transform="matrix(1,0,0,1,0,0)"><svg width="36.615762083443705" viewBox="4.5 -37.75 23.43 37.75" height="59.00725799999999" data-palette-color="#f9f9f9"><path d="M14.5 0L5.25 0 5.25-32.25 4.5-37.25Q6-37.45 7.59-37.6 9.18-37.75 10.8-37.75L10.8-37.75Q13.7-37.75 16.32-37.39 18.95-37.02 20.94-36.08 22.93-35.13 24.1-33.46 25.28-31.8 25.28-29.23L25.28-29.23Q25.28-26.5 24.1-24.53 22.93-22.55 20.75-21.5L20.75-21.5 16.9-20.4 20.58-20.05Q22.1-19.6 23.45-18.89 24.8-18.18 25.79-17.15 26.78-16.13 27.35-14.73 27.93-13.33 27.93-11.5L27.93-11.5Q27.93-9.38 27.36-7.7 26.8-6.03 25.83-4.75 24.85-3.48 23.55-2.56 22.25-1.65 20.76-1.09 19.28-0.53 17.68-0.26 16.07 0 14.5 0L14.5 0ZM9.88-18.25L9.88-4 12.63-4Q15.1-4 17.04-4.36 18.98-4.73 20.31-5.56 21.65-6.4 22.35-7.79 23.05-9.18 23.05-11.25L23.05-11.25Q23.05-13.13 22.4-14.45 21.75-15.78 20.56-16.63 19.38-17.48 17.7-17.86 16.03-18.25 14-18.25L14-18.25 9.88-18.25ZM8.97-34L9.88-28.68 9.88-22.13 12.5-22.13Q14.03-22.2 15.51-22.6 17-23 18.16-23.79 19.33-24.58 20.04-25.79 20.75-27 20.75-28.7L20.75-28.7Q20.75-30.35 19.99-31.44 19.23-32.52 18.03-33.15 16.82-33.77 15.34-34.02 13.85-34.27 12.43-34.27L12.43-34.27Q11.58-34.27 10.66-34.21 9.75-34.15 8.97-34L8.97-34Z" opacity="1" transform="matrix(1,0,0,1,0,0)" fill="#f9f9f9" class="wordmark-text-0" data-fill-palette-color="primary" id="text-0"></path></svg></g></svg></g></svg></g></svg></g></svg></g></svg></g><path d="M58.942 41.746L58.942 1 95.558 1 95.558 41.746 90.237 41.746 90.237 6.321 64.263 6.321 64.263 41.746 58.942 41.746M58.942 112.754L58.942 153.5 95.558 153.5 95.558 112.754 90.237 112.754 90.237 148.179 64.263 148.179 64.263 112.754 58.942 112.754" fill="#4aed88" stroke="transparent" data-fill-palette-color="tertiary"></path></svg></g><defs></defs></svg><rect width="154.5" height="154.5" fill="none" stroke="none" visibility="hidden"></rect></g></svg></g></svg>